<svg xmlns="http://www.w3.org/2000/svg" viewBox="150.22000122070312 127 384.74582742197305 251.98834228515625"> <svg xmlns="http://www.w3.org/2000/svg" id="Layer_1" viewBox="188.62429809570312 162.35000610351562 426.4172668457031 551.8062744140625" height="111.98834228515624" width="86.54082864267617" y="197" x="378.425" preserveAspectRatio="xMinYMin" style="overflow: visible;"><circle class="cls-1" cx="408.68" cy="276.08" r="113.51" style="fill: #667a00; fill-opacity: 1;"></circle><path class="cls-3" d="M314.11,334.06v-116.54c-1.8-1.75-2.78-2.71-4.58-4.45-65.79,2.11-118.74,55.06-120.85,120.85-.07,.42-.18,1.51,.43,2.58,.76,1.33,2.32,2.1,4.02,2h116.54c2.45,0,4.44-1.99,4.44-4.44Z" style="fill: #ffdb00; fill-opacity: 1;"></path><path class="cls-2" d="M611.5,389.5h.21c-17.34-129.18-101.07-227.15-201.75-227.15-.15,0-.31,0-.46,0v226.68c0,.15,0,.31,0,.46h202Z" style="fill: #9b373d; fill-opacity: 1;"></path><path class="cls-5" d="M409.11,696.5c-.33,10.05,2.25,14.19,5,16,15.57,10.23,77.21-27.7,128.18-92.5h-133.08c-.03,25.5-.07,51-.1,76.5Z" style="fill: #25467a; fill-opacity: 1;"></path><path class="cls-4" d="M613.13,401.5h-203.65c-.09,69.5-.18,139-.27,208.5h140.69c34.57-46.87,62.61-106.19,65.09-170.82,.13-3.52,.17-17.87-1.87-37.68Z" style="fill: #030400; fill-opacity: 1;"></path></svg> <svg y="247" viewBox="1.3300000429153442 19.950000762939453 182.8800048828125 38.5" x="220.22000122070312" height="38.5" width="182.8800048828125" style="overflow: visible;"><g fill="#000" style=""><path d="M34.24 19.95L34.24 19.95Q34.03 22.67 33.95 25.17Q33.87 27.68 33.87 29.01L33.87 29.01Q33.87 30.19 33.92 31.25Q33.97 32.32 34.03 33.07L34.03 33.07L32.80 33.07Q31.95 28.59 30.64 25.97Q29.33 23.36 27.52 22.27Q25.71 21.17 23.25 21.17L23.25 21.17L22.03 21.17L22.03 51.63Q22.03 53.76 22.48 54.83Q22.93 55.89 24.16 56.24Q25.39 56.59 27.73 56.64L27.73 56.64L27.73 57.71Q26.08 57.65 23.33 57.60Q20.59 57.55 17.60 57.55L17.60 57.55Q14.67 57.55 12.05 57.60Q9.44 57.65 7.84 57.71L7.84 57.71L7.84 56.64Q10.24 56.59 11.47 56.24Q12.69 55.89 13.12 54.83Q13.55 53.76 13.55 51.63L13.55 51.63L13.55 21.17L12.37 21.17Q9.92 21.17 8.11 22.27Q6.29 23.36 5.01 25.95Q3.73 28.53 2.77 33.07L2.77 33.07L1.55 33.07Q1.65 32.32 1.68 31.25Q1.71 30.19 1.71 29.01L1.71 29.01Q1.71 27.68 1.63 25.17Q1.55 22.67 1.33 19.95L1.33 19.95Q3.79 20.00 6.69 20.05Q9.60 20.11 12.53 20.11Q15.47 20.11 17.81 20.11L17.81 20.11Q20.21 20.11 23.12 20.11Q26.03 20.11 28.96 20.05Q31.89 20.00 34.24 19.95ZM50.67 29.39L50.67 29.39Q54.56 29.39 57.49 30.83Q60.43 32.27 62.08 35.47Q63.73 38.67 63.73 43.95L63.73 43.95Q63.73 49.23 62.08 52.40Q60.43 55.57 57.49 57.01Q54.56 58.45 50.67 58.45L50.67 58.45Q46.88 58.45 43.92 57.01Q40.96 55.57 39.28 52.40Q37.60 49.23 37.60 43.95L37.60 43.95Q37.60 38.67 39.28 35.47Q40.96 32.27 43.92 30.83Q46.88 29.39 50.67 29.39ZM50.67 30.45L50.67 30.45Q48.53 30.45 47.09 33.63Q45.65 36.80 45.65 43.95L45.65 43.95Q45.65 51.09 47.09 54.24Q48.53 57.39 50.67 57.39L50.67 57.39Q52.85 57.39 54.27 54.24Q55.68 51.09 55.68 43.95L55.68 43.95Q55.68 36.80 54.27 33.63Q52.85 30.45 50.67 30.45ZM93.60 29.55L93.60 29.55L93.60 51.89Q93.60 54.29 94.35 55.44Q95.09 56.59 97.01 56.59L97.01 56.59L97.01 57.71Q95.36 57.55 93.71 57.55L93.71 57.55Q91.47 57.55 89.55 57.71Q87.63 57.87 85.92 58.29L85.92 58.29L85.92 53.49Q84.64 56.16 82.37 57.31Q80.11 58.45 77.33 58.45L77.33 58.45Q75.09 58.45 73.71 57.87Q72.32 57.28 71.52 56.37L71.52 56.37Q70.61 55.36 70.24 53.71Q69.87 52.05 69.87 49.44L69.87 49.44L69.87 35.95Q69.87 33.55 69.15 32.40Q68.43 31.25 66.45 31.25L66.45 31.25L66.45 30.13Q68.16 30.29 69.76 30.29L69.76 30.29Q72.00 30.29 73.95 30.11Q75.89 29.92 77.55 29.55L77.55 29.55L77.55 51.63Q77.55 52.96 77.79 53.97Q78.03 54.99 78.72 55.55Q79.41 56.11 80.75 56.11L80.75 56.11Q82.19 56.11 83.33 55.31Q84.48 54.51 85.20 53.09Q85.92 51.68 85.92 49.92L85.92 49.92L85.92 35.95Q85.92 33.55 85.20 32.40Q84.48 31.25 82.51 31.25L82.51 31.25L82.51 30.13Q84.21 30.29 85.81 30.29L85.81 30.29Q88.05 30.29 90.00 30.11Q91.95 29.92 93.60 29.55ZM113.23 29.39L113.23 29.39Q115.31 29.39 117.04 29.84Q118.77 30.29 119.89 30.99L119.89 30.99Q121.28 31.84 122.05 33.09Q122.83 34.35 122.83 36.00L122.83 36.00Q122.83 37.87 121.65 39.07Q120.48 40.27 118.61 40.27L118.61 40.27Q116.75 40.27 115.63 39.20Q114.51 38.13 114.51 36.32L114.51 36.32Q114.51 34.61 115.57 33.47Q116.64 32.32 118.03 31.95L118.03 31.95Q117.60 31.41 116.75 31.04Q115.89 30.67 114.83 30.67L114.83 30.67Q113.17 30.67 111.92 31.63Q110.67 32.59 109.81 34.29Q108.96 36.00 108.51 38.29Q108.05 40.59 108.05 43.31L108.05 43.31Q108.05 47.41 109.09 49.76Q110.13 52.11 111.76 53.07Q113.39 54.03 115.15 54.03L115.15 54.03Q116.16 54.03 117.36 53.71Q118.56 53.39 119.81 52.43Q121.07 51.47 122.13 49.71L122.13 49.71L123.04 50.03Q122.45 52.00 121.12 53.97Q119.79 55.95 117.65 57.20Q115.52 58.45 112.43 58.45L112.43 58.45Q108.96 58.45 106.16 56.93Q103.36 55.41 101.68 52.24Q100.00 49.07 100.00 44.05L100.00 44.05Q100.00 39.25 101.73 35.97Q103.47 32.69 106.45 31.04Q109.44 29.39 113.23 29.39ZM133.17 58.08L133.17 58.08Q130.77 58.08 129.17 57.17Q127.57 56.27 126.83 54.75Q126.08 53.23 126.08 51.41L126.08 51.41Q126.08 49.12 127.12 47.68Q128.16 46.24 129.81 45.33Q131.47 44.43 133.31 43.84Q135.15 43.25 136.83 42.69Q138.51 42.13 139.55 41.36Q140.59 40.59 140.59 39.36L140.59 39.36L140.59 35.20Q140.59 33.81 140.13 32.72Q139.68 31.63 138.75 31.04Q137.81 30.45 136.32 30.45L136.32 30.45Q135.25 30.45 134.19 30.75Q133.12 31.04 132.43 31.73L132.43 31.73Q133.92 32.27 134.75 33.36Q135.57 34.45 135.57 35.84L135.57 35.84Q135.57 37.65 134.32 38.72Q133.07 39.79 131.36 39.79L131.36 39.79Q129.44 39.79 128.45 38.59Q127.47 37.39 127.47 35.68L127.47 35.68Q127.47 34.13 128.24 33.12Q129.01 32.11 130.40 31.20L130.40 31.20Q131.89 30.35 134.00 29.87Q136.11 29.39 138.56 29.39L138.56 29.39Q141.01 29.39 142.99 29.89Q144.96 30.40 146.29 31.73L146.29 31.73Q147.52 32.96 147.89 34.75Q148.27 36.53 148.27 39.25L148.27 39.25L148.27 53.76Q148.27 55.09 148.53 55.60Q148.80 56.11 149.44 56.11L149.44 56.11Q149.92 56.11 150.37 55.84Q150.83 55.57 151.36 55.20L151.36 55.20L151.89 56.11Q150.77 57.07 149.31 57.57Q147.84 58.08 146.03 58.08L146.03 58.08Q144.05 58.08 142.88 57.52Q141.71 56.96 141.20 56.00Q140.69 55.04 140.69 53.76L140.69 53.76Q139.41 55.79 137.60 56.93Q135.79 58.08 133.17 58.08ZM136.96 54.67L136.96 54.67Q138.03 54.67 138.91 54.16Q139.79 53.65 140.59 52.48L140.59 52.48L140.59 41.55Q140.11 42.35 139.25 42.99Q138.40 43.63 137.44 44.29Q136.48 44.96 135.60 45.76Q134.72 46.56 134.19 47.73Q133.65 48.91 133.65 50.56L133.65 50.56Q133.65 52.64 134.56 53.65Q135.47 54.67 136.96 54.67ZM173.28 29.39L173.28 29.39Q175.52 29.39 176.93 29.95Q178.35 30.51 179.15 31.47L179.15 31.47Q180.00 32.48 180.40 34.08Q180.80 35.68 180.80 38.40L180.80 38.40L180.80 52.75Q180.80 54.99 181.57 55.79Q182.35 56.59 184.21 56.59L184.21 56.59L184.21 57.71Q183.20 57.65 181.17 57.57Q179.15 57.49 177.17 57.49L177.17 57.49Q175.15 57.49 173.20 57.57Q171.25 57.65 170.24 57.71L170.24 57.71L170.24 56.59Q171.84 56.59 172.48 55.79Q173.12 54.99 173.12 52.75L173.12 52.75L173.12 36.16Q173.12 34.83 172.85 33.84Q172.59 32.85 171.89 32.29Q171.20 31.73 169.81 31.73L169.81 31.73Q168.37 31.73 167.17 32.53Q165.97 33.33 165.25 34.75Q164.53 36.16 164.53 37.92L164.53 37.92L164.53 52.75Q164.53 54.99 165.20 55.79Q165.87 56.59 167.41 56.59L167.41 56.59L167.41 57.71Q166.45 57.65 164.61 57.57Q162.77 57.49 160.80 57.49L160.80 57.49Q158.77 57.49 156.64 57.57Q154.51 57.65 153.44 57.71L153.44 57.71L153.44 56.59Q155.31 56.59 156.08 55.79Q156.85 54.99 156.85 52.75L156.85 52.75L156.85 35.95Q156.85 33.55 156.13 32.40Q155.41 31.25 153.44 31.25L153.44 31.25L153.44 30.13Q155.15 30.29 156.75 30.29L156.75 30.29Q158.99 30.29 160.93 30.11Q162.88 29.92 164.53 29.55L164.53 29.55L164.53 34.35Q165.87 31.63 168.16 30.51Q170.45 29.39 173.28 29.39Z" transform="translate(0, 0)"></path></g></svg></svg>